<svg xmlns="http://www.w3.org/2000/svg" xmlns:svg="http://www.w3.org/2000/svg" id="svg2" width="442.524" height="606.855" version="1.1" viewBox="0 0 414.866 568.927"><metadata id="metadata7"/><g id="layer1" transform="translate(16.427178,-57.34039)"><g id="g12439" transform="matrix(15,0,0,15,19.005893,133.3343)"><g id="g12441" transform="scale(1,1.0166667)"><path id="path12443" d="M 20.433333,30 2.5,30 C 1.1,30 0,28.9 0,27.5 L 0,2.5 C 0,1.1 1.1,0 2.5,0 l 17.933333,0 c 1.4,0 2.5,1.1 2.5,2.5 l 0,25 c 0,1.4 -1.1,2.5 -2.5,2.5 z M 2.5,1 C 1.7,1 1,1.7 1,2.5 l 0,25 C 1,28.3 1.7,29 2.5,29 l 17.933333,0 c 0.8,0 1.5,-0.7 1.5,-1.5 l 0,-25 c 0,-0.8 -0.7,-1.5 -1.5,-1.5 z"/></g><g id="g12445"><path id="path12447" d="M 22.233333,5 0.5,5 C 0.2,5 0,4.8 0,4.5 0,4.2 0.2,4 0.5,4 l 21.733333,0 c 0.3,0 0.5,0.2 0.5,0.5 0,0.3 -0.3,0.5 -0.5,0.5 z"/></g><g id="g12465"><circle id="circle12467" cx="2.5" cy="2.5" r=".5"/></g><g id="g12469"><circle id="circle12471" cx="4.5" cy="2.5" r=".5"/></g><g id="g12473"><circle id="circle12475" cx="6.5" cy="2.5" r=".5"/></g><g id="g12748" transform="translate(0.27637308,0.53333332)"><text id="text12506" x="1.476" y="7.211" xml:space="preserve" style="font-style:normal;font-weight:400;font-size:2.66666675px;line-height:125%;font-family:sans-serif;letter-spacing:0;word-spacing:0;fill:#000;fill-opacity:1;stroke:none;stroke-width:1px;stroke-linecap:butt;stroke-linejoin:miter;stroke-opacity:1"><tspan id="tspan12508" x="1.476" y="7.211">Web Page</tspan></text><rect id="rect12510" width="18.727" height="19.054" x="1.827" y="8.742" rx=".634" ry=".978" style="opacity:1;fill:none;fill-opacity:1;stroke:#000;stroke-width:.52516305;stroke-miterlimit:4;stroke-dasharray:none;stroke-opacity:1"/><g id="g12741" transform="translate(0.259213,-0.34162548)"><text style="font-style:normal;font-weight:400;font-size:2.66666675px;line-height:125%;font-family:sans-serif;letter-spacing:0;word-spacing:0;fill:#000;fill-opacity:1;stroke:none;stroke-width:1px;stroke-linecap:butt;stroke-linejoin:miter;stroke-opacity:1" id="text12527" x="2.714" y="12.326" xml:space="preserve"><tspan id="tspan12529" x="2.714" y="12.326">JavaScript</tspan></text><g id="g12737" transform="translate(0.1581398,-0.13333333)"><rect id="rect12510-3" width="15.605" height="12.938" x="2.615" y="13.918" rx=".529" ry=".664" style="opacity:1;fill:none;fill-opacity:1;stroke:#000;stroke-width:.39503941;stroke-miterlimit:4;stroke-dasharray:1.58015754,1.58015754;stroke-dashoffset:0;stroke-opacity:1"/><path id="path12724" d="m 14.873783,20.281732 -2.400001,-2.400001 c -0.0585,-0.0585 -0.1536,-0.0585 -0.2121,0 -0.0585,0.0585 -0.0585,0.153601 0,0.212101 l 2.2938,2.2938 -2.2938,2.293799 c -0.0585,0.0585 -0.0585,0.153601 0,0.212101 0.0294,0.0291 0.0678,0.0438 0.1062,0.0438 0.0384,0 0.0768,-0.0144 0.1059,-0.0435 l 2.400001,-2.4 c 0.0585,-0.0585 0.0585,-0.1536 0,-0.2121 z m -6.3000009,-2.4003 c -0.0585,-0.0585 -0.1536001,-0.0585 -0.2121001,0 l -2.4000001,2.4 c -0.0585,0.0585 -0.0585,0.153599 0,0.212099 l 2.4000001,2.400001 c 0.0294,0.0291 0.0675,0.0438 0.1059,0.0438 0.0384,0 0.0768,-0.0144 0.1059,-0.0441 0.0585,-0.0585 0.0585,-0.153601 0,-0.212101 l -2.2935001,-2.293803 2.2938002,-2.2938 c 0.0585,-0.0585 0.0585,-0.153599 0,-0.212099 z m 3.5483999,-1.833901 c -0.0765,-0.0297 -0.1638,0.0078 -0.1944,0.0849 l -3.3,8.400001 c -0.0303,0.0771 0.0078,0.1641 0.0849,0.1944 0.0183,0.0072 0.0369,0.0105 0.0549,0.0105 0.0597,0 0.1164,-0.036 0.1395,-0.0954 l 3.3,-8.400001 c 0.0306,-0.0771 -0.0075,-0.164099 -0.0849,-0.1944 z"/></g></g></g></g><text style="font-style:normal;font-weight:400;font-size:40px;line-height:125%;font-family:sans-serif;letter-spacing:0;word-spacing:0;fill:#000;fill-opacity:1;stroke:none;stroke-width:1px;stroke-linecap:butt;stroke-linejoin:miter;stroke-opacity:1" id="text12502" x="15.08" y="121.934" xml:space="preserve"><tspan id="tspan12504" x="15.08" y="121.934">Browser</tspan></text></g></svg>