<svg xmlns="http://www.w3.org/2000/svg" xmlns:svg="http://www.w3.org/2000/svg" id="svg2" width="854.45" height="235.152" version="1.1" viewBox="0 0 801.047 220.455"><metadata id="metadata7"/><g id="layer1" transform="translate(-28.670506,-768.90273)" style="display:inline"><g id="g11291" transform="matrix(2.88,0,0,2.88,273.95712,806.1358)"><g id="g11293"><circle id="circle11295" cx="29" cy="15" r=".5" class="st0" style="fill:#231f20"/></g><g id="g11297"><circle id="circle11299" cx="27" cy="15" r=".5" class="st0" style="fill:#231f20"/></g><g id="g11301"><circle id="circle11303" cx="27" cy="17" r=".5" class="st0" style="fill:#231f20"/></g><g id="g11305"><circle id="circle11307" cx="27" cy="13" r=".5" class="st0" style="fill:#231f20"/></g><g id="g11309"><circle id="circle11311" cx="25" cy="17" r=".5" class="st0" style="fill:#231f20"/></g><g id="g11313"><circle id="circle11315" cx="25" cy="19" r=".5" class="st0" style="fill:#231f20"/></g><g id="g11317"><circle id="circle11319" cx="25" cy="13" r=".5" class="st0" style="fill:#231f20"/></g><g id="g11321"><circle id="circle11323" cx="25" cy="11" r=".5" class="st0" style="fill:#231f20"/></g><g id="g11325"><circle id="circle11327" cx="23" cy="17" r=".5" class="st0" style="fill:#231f20"/></g><g id="g11329"><circle id="circle11331" cx="23" cy="19" r=".5" class="st0" style="fill:#231f20"/></g><g id="g11333"><circle id="circle11335" cx="23" cy="21" r=".5" class="st0" style="fill:#231f20"/></g><g id="g11337"><circle id="circle11339" cx="23" cy="13" r=".5" class="st0" style="fill:#231f20"/></g><g id="g11341"><circle id="circle11343" cx="23" cy="11" r=".5" class="st0" style="fill:#231f20"/></g><g id="g11345"><circle id="circle11347" cx="23" cy="9" r=".5" class="st0" style="fill:#231f20"/></g><g id="g11349"><circle id="circle11351" cx="21" cy="17" r=".5" class="st0" style="fill:#231f20"/></g><g id="g11353"><circle id="circle11355" cx="21" cy="19" r=".5" class="st0" style="fill:#231f20"/></g><g id="g11357"><circle id="circle11359" cx="21" cy="21" r=".5" class="st0" style="fill:#231f20"/></g><g id="g11361"><circle id="circle11363" cx="21" cy="23" r=".5" class="st0" style="fill:#231f20"/></g><g id="g11365"><circle id="circle11367" cx="21" cy="13" r=".5" class="st0" style="fill:#231f20"/></g><g id="g11369"><circle id="circle11371" cx="21" cy="11" r=".5" class="st0" style="fill:#231f20"/></g><g id="g11373"><circle id="circle11375" cx="21" cy="9" r=".5" class="st0" style="fill:#231f20"/></g><g id="g11377"><circle id="circle11379" cx="21" cy="7" r=".5" class="st0" style="fill:#231f20"/></g><g id="g11381"><circle id="circle11383" cx="19" cy="17" r=".5" class="st0" style="fill:#231f20"/></g><g id="g11385"><circle id="circle11387" cx="19" cy="19" r=".5" class="st0" style="fill:#231f20"/></g><g id="g11389"><circle id="circle11391" cx="19" cy="21" r=".5" class="st0" style="fill:#231f20"/></g><g id="g11393"><circle id="circle11395" cx="19" cy="23" r=".5" class="st0" style="fill:#231f20"/></g><g id="g11397"><circle id="circle11399" cx="19" cy="25" r=".5" class="st0" style="fill:#231f20"/></g><g id="g11401"><circle id="circle11403" cx="19" cy="13" r=".5" class="st0" style="fill:#231f20"/></g><g id="g11405"><circle id="circle11407" cx="19" cy="11" r=".5" class="st0" style="fill:#231f20"/></g><g id="g11409"><circle id="circle11411" cx="19" cy="9" r=".5" class="st0" style="fill:#231f20"/></g><g id="g11413"><circle id="circle11415" cx="19" cy="7" r=".5" class="st0" style="fill:#231f20"/></g><g id="g11417"><circle id="circle11419" cx="19" cy="5" r=".5" class="st0" style="fill:#231f20"/></g><g id="g11421"><circle id="circle11423" cx="17" cy="17" r=".5" class="st0" style="fill:#231f20"/></g><g id="g11425"><circle id="circle11427" cx="17" cy="19" r=".5" class="st0" style="fill:#231f20"/></g><g id="g11429"><circle id="circle11431" cx="17" cy="21" r=".5" class="st0" style="fill:#231f20"/></g><g id="g11433"><circle id="circle11435" cx="17" cy="23" r=".5" class="st0" style="fill:#231f20"/></g><g id="g11437"><circle id="circle11439" cx="17" cy="25" r=".5" class="st0" style="fill:#231f20"/></g><g id="g11441"><circle id="circle11443" cx="17" cy="27" r=".5" class="st0" style="fill:#231f20"/></g><g id="g11445"><circle id="circle11447" cx="17" cy="13" r=".5" class="st0" style="fill:#231f20"/></g><g id="g11449"><circle id="circle11451" cx="17" cy="11" r=".5" class="st0" style="fill:#231f20"/></g><g id="g11453"><circle id="circle11455" cx="17" cy="9" r=".5" class="st0" style="fill:#231f20"/></g><g id="g11457"><circle id="circle11459" cx="17" cy="7" r=".5" class="st0" style="fill:#231f20"/></g><g id="g11461"><circle id="circle11463" cx="17" cy="5" r=".5" class="st0" style="fill:#231f20"/></g><g id="g11465"><circle id="circle11467" cx="17" cy="3" r=".5" class="st0" style="fill:#231f20"/></g><g id="g11469"><circle id="circle11471" cx="25" cy="15" r=".5" class="st0" style="fill:#231f20"/></g><g id="g11473"><circle id="circle11475" cx="23" cy="15" r=".5" class="st0" style="fill:#231f20"/></g><g id="g11477"><circle id="circle11479" cx="21" cy="15" r=".5" class="st0" style="fill:#231f20"/></g><g id="g11481"><circle id="circle11483" cx="19" cy="15" r=".5" class="st0" style="fill:#231f20"/></g><g id="g11485"><circle id="circle11487" cx="17" cy="15" r=".5" class="st0" style="fill:#231f20"/></g><g id="g11489"><circle id="circle11491" cx="15" cy="17" r=".5" class="st0" style="fill:#231f20"/></g><g id="g11493"><circle id="circle11495" cx="15" cy="13" r=".5" class="st0" style="fill:#231f20"/></g><g id="g11497"><circle id="circle11499" cx="15" cy="15" r=".5" class="st0" style="fill:#231f20"/></g><g id="g11501"><circle id="circle11503" cx="13" cy="17" r=".5" class="st0" style="fill:#231f20"/></g><g id="g11505"><circle id="circle11507" cx="13" cy="13" r=".5" class="st0" style="fill:#231f20"/></g><g id="g11509"><circle id="circle11511" cx="13" cy="15" r=".5" class="st0" style="fill:#231f20"/></g><g id="g11513"><circle id="circle11515" cx="11" cy="17" r=".5" class="st0" style="fill:#231f20"/></g><g id="g11517"><circle id="circle11519" cx="11" cy="13" r=".5" class="st0" style="fill:#231f20"/></g><g id="g11521"><circle id="circle11523" cx="11" cy="15" r=".5" class="st0" style="fill:#231f20"/></g><g id="g11525"><circle id="circle11527" cx="9" cy="17" r=".5" class="st0" style="fill:#231f20"/></g><g id="g11529"><circle id="circle11531" cx="9" cy="13" r=".5" class="st0" style="fill:#231f20"/></g><g id="g11533"><circle id="circle11535" cx="9" cy="15" r=".5" class="st0" style="fill:#231f20"/></g><g id="g11537"><circle id="circle11539" cx="7" cy="17" r=".5" class="st0" style="fill:#231f20"/></g><g id="g11541"><circle id="circle11543" cx="7" cy="13" r=".5" class="st0" style="fill:#231f20"/></g><g id="g11545"><circle id="circle11547" cx="7" cy="15" r=".5" class="st0" style="fill:#231f20"/></g><g id="g11549"><circle id="circle11551" cx="5" cy="17" r=".5" class="st0" style="fill:#231f20"/></g><g id="g11553"><circle id="circle11555" cx="5" cy="13" r=".5" class="st0" style="fill:#231f20"/></g><g id="g11557"><circle id="circle11559" cx="5" cy="15" r=".5" class="st0" style="fill:#231f20"/></g><g id="g11561"><circle id="circle11563" cx="3" cy="17" r=".5" class="st0" style="fill:#231f20"/></g><g id="g11565"><circle id="circle11567" cx="3" cy="13" r=".5" class="st0" style="fill:#231f20"/></g><g id="g11569"><circle id="circle11571" cx="3" cy="15" r=".5" class="st0" style="fill:#231f20"/></g><g id="g11573"><circle id="circle11575" cx="1" cy="17" r=".5" class="st0" style="fill:#231f20"/></g><g id="g11577"><circle id="circle11579" cx="1" cy="13" r=".5" class="st0" style="fill:#231f20"/></g><g id="g11581"><circle id="circle11583" cx="1" cy="15" r=".5" class="st0" style="fill:#231f20"/></g></g><text style="font-style:normal;font-weight:400;font-size:40px;line-height:125%;font-family:sans-serif;text-align:center;letter-spacing:0;word-spacing:0;text-anchor:middle;fill:#000;fill-opacity:1;stroke:none;stroke-width:1px;stroke-linecap:butt;stroke-linejoin:miter;stroke-opacity:1" id="text14946" x="316.239" y="923.582" xml:space="preserve"><tspan id="tspan14950" x="316.239" y="923.582" style="font-style:italic;font-variant:normal;font-weight:400;font-stretch:normal;font-size:20px;font-family:sans-serif;-inkscape-font-specification:'sans-serif Italic'">Web Push Protocol</tspan><tspan style="font-style:italic;font-variant:normal;font-weight:400;font-stretch:normal;font-size:20px;font-family:sans-serif;-inkscape-font-specification:'sans-serif Italic'" id="tspan4342" x="316.239" y="948.582">Request</tspan></text><g id="g14246" transform="matrix(3,0,0,3,83.798254,804.3358)"><g id="g14248"><g id="g14250"><path id="path14252" d="M 25.8,30 4.2,30 C 2.3,30 0.7,28.4 0.7,26.5 0.7,24.6 2.3,23 4.2,23 l 21.5,0 c 1.9,0 3.5,1.6 3.5,3.5 0,1.9 -1.5,3.5 -3.4,3.5 z M 4.2,24 c -1.4,0 -2.5,1.1 -2.5,2.5 0,1.4 1.2,2.5 2.5,2.5 l 21.5,0 c 1.4,0 2.5,-1.1 2.5,-2.5 0,-1.4 -1.1,-2.5 -2.4,-2.5 L 4.2,24 Z"/></g><g id="g14254"><path id="path14256" d="M 4.8,27 C 4.5,27 4.3,26.8 4.3,26.5 4.3,26.2 4.5,26 4.8,26 l 0,0 c 0.3,0 0.5,0.2 0.5,0.5 C 5.3,26.8 5,27 4.8,27 Z"/></g><g id="g14258"><path id="path14260" d="M 6.8,27 C 6.5,27 6.3,26.8 6.3,26.5 6.3,26.2 6.5,26 6.8,26 l 0,0 c 0.3,0 0.5,0.2 0.5,0.5 C 7.3,26.8 7,27 6.8,27 Z"/></g><g id="g14262"><path id="path14264" d="M 25.8,24 4.2,24 C 2.3,24 0.7,22.4 0.7,20.5 0.7,18.6 2.3,17 4.2,17 l 21.5,0 c 1.9,0 3.5,1.6 3.5,3.5 0,1.9 -1.5,3.5 -3.4,3.5 z M 4.2,18 c -1.4,0 -2.5,1.1 -2.5,2.5 0,1.4 1.2,2.5 2.5,2.5 l 21.5,0 c 1.4,0 2.5,-1.1 2.5,-2.5 0,-1.4 -1.1,-2.5 -2.4,-2.5 L 4.2,18 Z"/></g><g id="g14266"><path id="path14268" d="M 4.8,21 C 4.5,21 4.3,20.8 4.3,20.5 4.3,20.2 4.5,20 4.8,20 l 0,0 c 0.3,0 0.5,0.2 0.5,0.5 0,0.3 -0.2,0.5 -0.5,0.5 z"/></g><g id="g14270"><path id="path14272" d="M 6.8,21 C 6.5,21 6.3,20.8 6.3,20.5 6.3,20.2 6.5,20 6.8,20 l 0,0 c 0.3,0 0.5,0.2 0.5,0.5 C 7.3,20.8 7,21 6.8,21 Z"/></g><g id="g14274"><circle id="circle14276" cx="26.3" cy="26" r="1"/></g><g id="g14278"><circle id="circle14280" cx="26.3" cy="20" r="1"/></g></g><g id="g14282"><path id="path14284" d="M 21.3,15 9.2,15 c -2.2,0 -4,-1.8 -4,-4 0,-2 1.5,-3.7 3.5,-4 0,-0.1 0,-0.2 0,-0.2 0,-3.8 3,-6.8 6.7,-6.8 3,0 5.6,2 6.4,4.9 2.5,0.3 4.4,2.4 4.4,5 C 26.3,12.7 24,15 21.3,15 Z M 9.2,8 c -1.6,0 -2.9,1.3 -2.9,3 0,1.7 1.3,3 3,3 l 12.1,0 c 2.2,0 4,-1.8 4,-4.1 C 25.4,7.7 23.7,6 21.6,5.9 21.4,5.9 21.2,5.7 21.1,5.5 20.4,2.9 18.1,1 15.4,1 12.3,1 9.7,3.6 9.7,6.8 c 0,0.2 0,0.4 0,0.6 0,0.2 0,0.3 -0.1,0.4 C 9.5,7.9 9.3,8 9.2,8 c 0,0 0,0 0,0 z"/></g></g><text style="font-style:normal;font-weight:400;font-size:40px;line-height:125%;font-family:sans-serif;letter-spacing:0;word-spacing:0;display:inline;fill:#000;fill-opacity:1;stroke:none;stroke-width:1px;stroke-linecap:butt;stroke-linejoin:miter;stroke-opacity:1" id="text14942" x="64.148" y="925.086" xml:space="preserve"><tspan id="tspan14944" x="64.148" y="925.086" style="font-size:22.5px">Your Server</tspan></text><g id="g6292" transform="translate(-20.093784,3.0439215)"><g id="g4635" transform="matrix(3,0,0,3,486.42875,801.29188)"><g id="g4637"><path id="path4639" d="M 18.4,25 4.5,25 C 2,25 0,22.9 0,20.5 0,18.2 1.7,16.3 4,16.1 4,16 4,15.9 4,15.8 4,11.6 7.4,8.1 11.6,8.1 c 3.5,0 6.5,2.3 7.4,5.6 2.9,0.3 5,2.7 5,5.6 0,3.1 -2.5,5.7 -5.6,5.7 z M 4.5,17 C 2.6,17 1,18.6 1,20.5 1,22.4 2.6,24 4.5,24 l 13.9,0 c 2.6,0 4.7,-2.1 4.7,-4.7 0,-2.5 -2,-4.6 -4.5,-4.7 -0.2,0 -0.4,-0.2 -0.5,-0.4 C 17.4,11.1 14.7,9 11.6,9 8,9.1 5,12 5,15.7 5,16 5,16.2 5,16.4 5,16.6 5,16.7 4.9,16.8 4.8,17 4.6,17 4.5,17 c 0,0 0,0 0,0 z"/></g><g id="g4641"><path id="path4643" d="m 25.2,21.9 c -0.2,0 -0.4,-0.2 -0.5,-0.4 0,-0.3 0.1,-0.5 0.4,-0.6 2.2,-0.4 3.9,-2.3 3.9,-4.6 0,-2.5 -2,-4.6 -4.5,-4.7 -0.2,0 -0.4,-0.2 -0.5,-0.4 C 23.3,8.1 20.6,6 17.5,6 16.2,6 14.9,6.4 13.8,7.1 13.6,7.3 13.3,7.2 13.1,7 12.9,6.8 13,6.5 13.2,6.3 14.6,5.5 16,5 17.6,5 c 3.5,0 6.5,2.3 7.4,5.6 2.9,0.3 5,2.7 5,5.6 0,2.8 -2,5.2 -4.8,5.7 0.1,0 0.1,0 0,0 z"/></g></g><g id="g6223" transform="translate(504.2609,840.25791)"><g id="g6225"><path id="path6227" d="M 15.5,26.3 C 15.3,26.3 15.1,26.2 15,26 L 12.6,18.7 5.3,16.3 C 5.2,16.2 5,16 5,15.8 5,15.6 5.1,15.4 5.2,15.3 l 24,-14 c 0.2,-0.1 0.4,-0.1 0.5,0 0.2,0.2 0.3,0.4 0.3,0.6 l -4,21 c 0,0.1 -0.1,0.3 -0.2,0.3 -0.1,0.1 -0.3,0.1 -0.4,0 L 16.9,20 16,25.9 c 0,0.2 -0.2,0.4 -0.5,0.4 0,0 0,0 0,0 z m -8.8,-10.6 6.5,2.2 c 0.1,0 0.3,0.2 0.3,0.3 l 1.8,5.5 0.7,-4.5 c 0,-0.2 0.1,-0.3 0.2,-0.4 0.1,-0.1 0.3,-0.1 0.4,0 L 25,22.1 28.7,2.8 6.7,15.7 Z"/></g><g id="g6229"><path id="path6231" d="m 16.5,19.8 c -0.1,0 -0.2,0 -0.3,-0.1 C 16,19.5 15.9,19.2 16.1,19 L 25,7 13.4,18.6 c -0.2,0.2 -0.5,0.2 -0.7,0 -0.2,-0.2 -0.2,-0.5 0,-0.7 L 29.1,1.4 c 0.2,-0.2 0.5,-0.2 0.7,0 0.2,0.2 0.2,0.5 0.1,0.7 l -13,17.5 c -0.1,0.1 -0.2,0.2 -0.4,0.2 z"/></g><g id="g6233"><path id="path6235" d="m 15.5,26.3 c -0.1,0 -0.2,0 -0.3,-0.1 C 15,26 14.9,25.7 15.1,25.5 l 4,-5 c 0.2,-0.2 0.5,-0.2 0.7,-0.1 0.2,0.2 0.3,0.5 0.1,0.7 l -4,5 c -0.1,0.1 -0.3,0.2 -0.4,0.2 z"/></g><g id="g6237"><g id="g6239"><g id="g6241"><path id="path6243" d="m 1.4,24.7 c -0.1,0 -0.2,0 -0.3,-0.1 C 0.8,24.3 0.5,24 0.2,23.7 0,23.5 0,23.2 0.2,23 c 0.2,-0.2 0.5,-0.2 0.7,0 0.3,0.3 0.6,0.6 0.9,0.9 0.2,0.2 0.2,0.5 0,0.7 -0.1,0 -0.3,0.1 -0.4,0.1 z"/></g><g id="g6245"><path id="path6247" d="m 8.8,28.7 c 0,0 0,0 0,0 C 8.2,28.6 7.6,28.5 7.1,28.3 6.8,28.2 6.7,27.9 6.8,27.7 c 0.1,-0.2 0.4,-0.4 0.6,-0.3 0.5,0.2 1,0.3 1.5,0.3 0.3,0 0.5,0.3 0.4,0.6 0,0.2 -0.2,0.4 -0.5,0.4 z m 2.4,0 c -0.2,0 -0.5,-0.2 -0.5,-0.4 0,-0.3 0.1,-0.5 0.4,-0.6 0.2,0 0.3,-0.1 0.5,-0.1 0.3,-0.1 0.5,0.1 0.6,0.4 0.1,0.3 -0.1,0.5 -0.4,0.6 -0.1,0 -0.3,0 -0.6,0.1 0.1,0 0.1,0 0,0 z M 5.1,27.4 C 5,27.4 4.9,27.4 4.9,27.3 4.4,27 4,26.7 3.5,26.4 3.3,26.2 3.2,25.9 3.4,25.7 c 0.2,-0.2 0.5,-0.3 0.7,-0.1 0.4,0.3 0.9,0.6 1.3,0.8 0.2,0.1 0.3,0.4 0.2,0.7 -0.2,0.2 -0.3,0.3 -0.5,0.3 z"/></g><g id="g6249"><path id="path6251" d="m 13.1,28.1 c -0.2,0 -0.4,-0.1 -0.5,-0.3 -0.1,-0.3 0,-0.5 0.3,-0.7 0.4,-0.2 0.7,-0.3 1.1,-0.5 0.2,-0.1 0.5,-0.1 0.7,0.2 0.1,0.2 0.1,0.5 -0.2,0.7 -0.4,0.2 -0.8,0.4 -1.2,0.6 0,0 -0.1,0 -0.2,0 z"/></g></g></g></g></g><text style="font-style:normal;font-weight:400;font-size:40px;line-height:125%;font-family:sans-serif;letter-spacing:0;word-spacing:0;display:inline;fill:#000;fill-opacity:1;stroke:none;stroke-width:1px;stroke-linecap:butt;stroke-linejoin:miter;stroke-opacity:1" id="text14942-3" x="438.913" y="925.481" xml:space="preserve"><tspan id="tspan14944-6" x="438.913" y="925.481" style="font-size:22.5px">Push Service</tspan></text><g id="XMLID_49_" transform="matrix(2.4000001,0,0,2.4000001,667.70242,813.3358)"><g id="XMLID_535_"><path id="XMLID_522_" d="m 20.5,30 -11,0 C 7.6,30 6,28.4 6,26.5 L 6,3.5 C 6,1.6 7.6,0 9.5,0 l 11,0 C 22.4,0 24,1.6 24,3.5 l 0,23 C 24,28.4 22.4,30 20.5,30 Z M 9.5,1 C 8.1,1 7,2.1 7,3.5 l 0,23 C 7,27.9 8.1,29 9.5,29 l 11,0 c 1.4,0 2.5,-1.1 2.5,-2.5 l 0,-23 C 23,2.1 21.9,1 20.5,1 l -11,0 z"/></g><g id="XMLID_50_"><path id="XMLID_521_" d="M 23.5,5 6.5,5 C 6.2,5 6,4.8 6,4.5 6,4.2 6.2,4 6.5,4 l 17,0 C 23.8,4 24,4.2 24,4.5 24,4.8 23.8,5 23.5,5 Z"/></g><g id="XMLID_51_"><path id="XMLID_520_" d="M 23,25 7,25 C 6.7,25 6.5,24.8 6.5,24.5 6.5,24.2 6.7,24 7,24 l 16,0 c 0.3,0 0.5,0.2 0.5,0.5 0,0.3 -0.2,0.5 -0.5,0.5 z"/></g><g id="XMLID_53_"><path id="XMLID_519_" d="m 17.5,3 -5,0 C 12.2,3 12,2.8 12,2.5 12,2.2 12.2,2 12.5,2 l 5,0 C 17.8,2 18,2.2 18,2.5 18,2.8 17.8,3 17.5,3 Z"/></g><g id="XMLID_54_"><path id="XMLID_518_" d="M 20.5,3 C 20.2,3 20,2.8 20,2.5 20,2.2 20.2,2 20.5,2 l 0,0 C 20.8,2 21,2.2 21,2.5 21,2.8 20.8,3 20.5,3 Z"/></g><g id="XMLID_2_"><circle id="XMLID_517_" cx="15" cy="27" r="1"/></g></g><text id="text4660" x="703.153" y="925.481" xml:space="preserve" style="font-style:normal;font-weight:400;font-size:40px;line-height:125%;font-family:sans-serif;letter-spacing:0;word-spacing:0;display:inline;fill:#000;fill-opacity:1;stroke:none;stroke-width:1px;stroke-linecap:butt;stroke-linejoin:miter;stroke-opacity:1"><tspan style="font-size:22.5px;text-align:center;text-anchor:middle" id="tspan4662" x="703.153" y="925.481">Message Arrives</tspan><tspan style="font-size:22.5px;text-align:center;text-anchor:middle" id="tspan4664" x="703.153" y="953.606">on the Device</tspan></text><g id="g5318" transform="matrix(1.3126079,0,0,1.3126079,587.89521,829.61387)"><path id="path5320" d="m 8,29.5 c -0.1,0 -0.3,0 -0.4,-0.1 -0.2,-0.2 -0.2,-0.5 0,-0.7 L 21.3,15 7.6,1.4 C 7.4,1.2 7.4,0.9 7.6,0.7 7.8,0.5 8.1,0.5 8.3,0.7 l 14,14 c 0.2,0.2 0.2,0.5 0,0.7 l -14,14 c 0,0.1 -0.2,0.1 -0.3,0.1 z" class="st0" style="fill:#231f20"/></g></g><style id="style9651" type="text/css">.st0{fill:#231f20}</style><style id="style11289" type="text/css">.st0{fill:#231f20}</style><style id="style5316" type="text/css">.st0{fill:#231f20}</style></svg>